<svg xmlns="http://www.w3.org/2000/svg" xmlns:xlink="http://www.w3.org/1999/xlink" width="1920" zoomAndPan="magnify" viewBox="0 0 1440 809.999993" height="1080" preserveAspectRatio="xMidYMid meet" version="1.0"><defs><filter x="0%" y="0%" width="100%" height="100%" id="3391c41ce4"><feColorMatrix values="0 0 0 0 1 0 0 0 0 1 0 0 0 0 1 0 0 0 1 0" color-interpolation-filters="sRGB"/></filter><g/><mask id="2ee2a77def"><g filter="url(#3391c41ce4)"><rect x="-144" width="1728" fill="#000000" y="-80.999999" height="971.999992" fill-opacity="0.2"/></g></mask><clipPath id="6d4703b31c"><path d="M 0 0 L 43 0 L 43 81 L 0 81 Z M 0 0 " clip-rule="nonzero"/></clipPath><clipPath id="3dfb3454c2"><path d="M 0 0 L 136 0 L 136 18 L 0 18 Z M 0 0 " clip-rule="nonzero"/></clipPath><clipPath id="a268fe8045"><path d="M 131 0 L 266.144531 0 L 266.144531 18 L 131 18 Z M 131 0 " clip-rule="nonzero"/></clipPath><clipPath id="068daf2c82"><rect x="0" width="267" y="0" height="82"/></clipPath><mask id="6919e6eea2"><g filter="url(#3391c41ce4)"><rect x="-144" width="1728" fill="#000000" y="-80.999999" height="971.999992" fill-opacity="0.2"/></g></mask><clipPath id="d46cd15bb5"><rect x="0" width="165" y="0" height="742"/></clipPath></defs><g mask="url(#2ee2a77def)"><g transform="matrix(1, 0, 0, 1, 0, 0.000000000000039746)"><g clip-path="url(#068daf2c82)"><g clip-path="url(#6d4703b31c)"><path fill="#d9d9d9" d="M -145.234375 -62.65625 L -128.996094 -34.5 L -56.976562 -34.5 L 9.5 80.730469 L 42.289062 80.730469 L -40.433594 -62.65625 Z M -145.234375 -62.65625 " fill-opacity="1" fill-rule="nonzero"/></g><g clip-path="url(#3dfb3454c2)"><path fill="#d9d9d9" d="M 47.355469 -10.203125 L -19.117188 -125.421875 L -51.90625 -125.421875 L 30.816406 17.953125 L 135.617188 17.953125 L 119.378906 -10.203125 Z M 47.355469 -10.203125 " fill-opacity="1" fill-rule="nonzero"/></g><g clip-path="url(#a268fe8045)"><path fill="#d9d9d9" d="M 257.710938 3.851562 L 156.183594 3.851562 L 148.074219 -10.203125 L 131.828125 -10.203125 L 148.074219 17.953125 L 164.324219 17.953125 L 164.300781 17.929688 L 266.015625 17.929688 Z M 257.710938 3.851562 " fill-opacity="1" fill-rule="nonzero"/></g></g></g></g><g mask="url(#6919e6eea2)"><g transform="matrix(1, 0, 0, 1, 1275, 18)"><g clip-path="url(#d46cd15bb5)"><g fill="#a6a6a6" fill-opacity="1"><g transform="translate(161.763189, 741.38418)"><g><path d="M 0 -31.5 L 0 -3.96875 L -121.5 -45.921875 L -121.5 -79.015625 L 0 -120.90625 L 0 -93.375 L -27.703125 -84.359375 L -27.703125 -40.515625 Z M -47.75 -47.046875 L -47.75 -77.890625 L -93.734375 -62.9375 L -93.734375 -62 Z M -47.75 -47.046875 "/></g></g></g><g fill="#a6a6a6" fill-opacity="1"><g transform="translate(161.763189, 588.372888)"><g><path d="M 0 -10.5625 L -121.5 -10.5625 L -121.5 -59.203125 C -121.5 -72.609375 -118.582031 -82.679688 -112.75 -89.421875 C -106.914062 -96.171875 -99.453125 -99.546875 -90.359375 -99.546875 C -83.191406 -99.546875 -77.40625 -97.46875 -73 -93.3125 C -68.59375 -89.164062 -65.675781 -83.925781 -64.25 -77.59375 L -63.0625 -77.59375 C -62.863281 -82.226562 -61.554688 -86.570312 -59.140625 -90.625 C -56.734375 -94.675781 -53.375 -97.96875 -49.0625 -100.5 C -44.75 -103.03125 -39.585938 -104.296875 -33.578125 -104.296875 C -27.128906 -104.296875 -21.375 -102.703125 -16.3125 -99.515625 C -11.25 -96.335938 -7.265625 -91.640625 -4.359375 -85.421875 C -1.453125 -79.210938 0 -71.5625 0 -62.46875 Z M -21 -36.25 L -21 -57.1875 C -21 -64.382812 -22.382812 -69.613281 -25.15625 -72.875 C -27.925781 -76.144531 -31.582031 -77.78125 -36.125 -77.78125 C -41.15625 -77.78125 -45.269531 -75.988281 -48.46875 -72.40625 C -51.675781 -68.820312 -53.28125 -63.945312 -53.28125 -57.78125 L -53.28125 -36.25 Z M -70.65625 -36.25 L -70.65625 -55.296875 C -70.65625 -60.554688 -72.03125 -64.925781 -74.78125 -68.40625 C -77.53125 -71.882812 -81.296875 -73.625 -86.078125 -73.625 C -90.472656 -73.625 -94.015625 -72.070312 -96.703125 -68.96875 C -99.390625 -65.863281 -100.734375 -61.460938 -100.734375 -55.765625 L -100.734375 -36.25 Z M -70.65625 -36.25 "/></g></g></g><g fill="#a6a6a6" fill-opacity="1"><g transform="translate(161.763189, 449.896644)"><g><path d="M -60.75 -122.21875 C -47.5 -122.21875 -36.226562 -119.710938 -26.9375 -114.703125 C -17.644531 -109.703125 -10.554688 -102.910156 -5.671875 -94.328125 C -0.785156 -85.742188 1.65625 -76.070312 1.65625 -65.3125 C 1.65625 -54.519531 -0.789062 -44.832031 -5.6875 -36.25 C -10.59375 -27.664062 -17.703125 -20.878906 -27.015625 -15.890625 C -36.335938 -10.910156 -47.582031 -8.421875 -60.75 -8.421875 C -74 -8.421875 -85.269531 -10.910156 -94.5625 -15.890625 C -103.851562 -20.878906 -110.941406 -27.664062 -115.828125 -36.25 C -120.710938 -44.832031 -123.15625 -54.519531 -123.15625 -65.3125 C -123.15625 -76.070312 -120.710938 -85.742188 -115.828125 -94.328125 C -110.941406 -102.910156 -103.851562 -109.703125 -94.5625 -114.703125 C -85.269531 -119.710938 -74 -122.21875 -60.75 -122.21875 Z M -60.75 -96.171875 C -73.644531 -96.171875 -83.484375 -93.359375 -90.265625 -87.734375 C -97.046875 -82.117188 -100.4375 -74.644531 -100.4375 -65.3125 C -100.4375 -55.976562 -97.046875 -48.503906 -90.265625 -42.890625 C -83.484375 -37.273438 -73.644531 -34.46875 -60.75 -34.46875 C -47.894531 -34.46875 -38.066406 -37.273438 -31.265625 -42.890625 C -24.460938 -48.503906 -21.0625 -55.976562 -21.0625 -65.3125 C -21.0625 -74.644531 -24.460938 -82.117188 -31.265625 -87.734375 C -38.066406 -93.359375 -47.894531 -96.171875 -60.75 -96.171875 Z M -60.75 -96.171875 "/></g></g></g><g fill="#a6a6a6" fill-opacity="1"><g transform="translate(161.763189, 291.190007)"><g><path d="M -121.5 -85.78125 L -121.5 -111.296875 L -41.171875 -111.296875 C -31.992188 -111.296875 -24.210938 -109.140625 -17.828125 -104.828125 C -11.441406 -100.515625 -6.585938 -94.570312 -3.265625 -87 C 0.0546875 -79.425781 1.71875 -70.734375 1.71875 -60.921875 C 1.71875 -51.117188 0.0546875 -42.421875 -3.265625 -34.828125 C -6.585938 -27.234375 -11.441406 -21.289062 -17.828125 -17 C -24.210938 -12.707031 -31.992188 -10.5625 -41.171875 -10.5625 L -121.5 -10.5625 L -121.5 -36.25 L -42.0625 -36.25 C -35.570312 -36.25 -30.46875 -38.59375 -26.75 -43.28125 C -23.03125 -47.96875 -21.171875 -53.847656 -21.171875 -60.921875 C -21.171875 -68.117188 -23.03125 -74.0625 -26.75 -78.75 C -30.46875 -83.4375 -35.570312 -85.78125 -42.0625 -85.78125 Z M -121.5 -85.78125 "/></g></g></g><g fill="#a6a6a6" fill-opacity="1"><g transform="translate(161.763189, 141.263726)"><g><path d="M -100.328125 -5.9375 L -121.5 -5.9375 L -121.5 -105.71875 L -100.328125 -105.71875 L -100.328125 -68.515625 L 0 -68.515625 L 0 -43.125 L -100.328125 -43.125 Z M -100.328125 -5.9375 "/></g></g></g></g></g></g></svg>