<svg xmlns="http://www.w3.org/2000/svg"
    xmlns:xlink="http://www.w3.org/1999/xlink" width="1920" zoomAndPan="magnify" viewBox="0 0 1440 809.999993" height="1080" preserveAspectRatio="xMidYMid meet" version="1.0">
    <defs>
        <filter x="0%" y="0%" width="100%" height="100%" id="76cae38a58">
            <feColorMatrix values="0 0 0 0 1 0 0 0 0 1 0 0 0 0 1 0 0 0 1 0" color-interpolation-filters="sRGB"/>
        </filter>
        <g/>
        <mask id="e729eebeb8">
            <g filter="url(#76cae38a58)">
                <rect x="-144" width="1728" fill="#000000" y="-80.999999" height="971.999992" fill-opacity="0.2"/>
            </g>
        </mask>
        <clipPath id="3a3ed2b54c">
            <rect x="0" width="123" y="0" height="791"/>
        </clipPath>
    </defs>
    <g mask="url(#e729eebeb8)">
        <g transform="matrix(1, 0, 0, 1, 1317, 0.000000000000039746)">
            <g clip-path="url(#3a3ed2b54c)">
                <g fill="#a6a6a6" fill-opacity="1">
                    <g transform="translate(114.099309, 789.692902)">
                        <g>
                            <path d="M 0 -7.453125 L -85.828125 -7.453125 L -85.828125 -41.328125 C -85.828125 -47.835938 -84.585938 -53.378906 -82.109375 -57.953125 C -79.640625 -62.535156 -76.21875 -66.035156 -71.84375 -68.453125 C -67.476562 -70.867188 -62.445312 -72.078125 -56.75 -72.078125 C -51.050781 -72.078125 -46.023438 -70.847656 -41.671875 -68.390625 C -37.328125 -65.929688 -33.929688 -62.375 -31.484375 -57.71875 C -29.046875 -53.070312 -27.828125 -47.453125 -27.828125 -40.859375 L -27.828125 -25.609375 L 0 -25.609375 Z M -42.375 -25.609375 L -42.375 -37.921875 C -42.375 -43.117188 -43.707031 -46.992188 -46.375 -49.546875 C -49.039062 -52.109375 -52.5 -53.390625 -56.75 -53.390625 C -61.019531 -53.390625 -64.460938 -52.109375 -67.078125 -49.546875 C -69.691406 -46.992188 -71 -43.09375 -71 -37.84375 L -71 -25.609375 Z M -42.375 -25.609375 "/>
                        </g>
                    </g>
                </g>
                <g fill="#a6a6a6" fill-opacity="1">
                    <g transform="translate(114.099309, 693.430048)">
                        <g>
                            <path d="M 0 -7.453125 L -85.828125 -7.453125 L -85.828125 -41.328125 C -85.828125 -51.078125 -83.285156 -58.640625 -78.203125 -64.015625 C -73.117188 -69.390625 -66.316406 -72.078125 -57.796875 -72.078125 C -51.921875 -72.078125 -46.898438 -70.769531 -42.734375 -68.15625 C -38.578125 -65.550781 -35.453125 -61.800781 -33.359375 -56.90625 L 0 -75.140625 L 0 -55.109375 L -30.421875 -38.84375 L -30.421875 -25.609375 L 0 -25.609375 Z M -45.015625 -25.609375 L -45.015625 -37.921875 C -45.015625 -48.234375 -49.273438 -53.390625 -57.796875 -53.390625 C -66.597656 -53.390625 -71 -48.207031 -71 -37.84375 L -71 -25.609375 Z M -45.015625 -25.609375 "/>
                        </g>
                    </g>
                </g>
                <g fill="#a6a6a6" fill-opacity="1">
                    <g transform="translate(114.099309, 596.161441)">
                        <g>
                            <path d="M -42.921875 -86.328125 C -33.554688 -86.328125 -25.585938 -84.5625 -19.015625 -81.03125 C -12.453125 -77.5 -7.445312 -72.703125 -4 -66.640625 C -0.550781 -60.578125 1.171875 -53.742188 1.171875 -46.140625 C 1.171875 -38.515625 -0.554688 -31.671875 -4.015625 -25.609375 C -7.484375 -19.546875 -12.503906 -14.753906 -19.078125 -11.234375 C -25.660156 -7.710938 -33.609375 -5.953125 -42.921875 -5.953125 C -52.273438 -5.953125 -60.234375 -7.710938 -66.796875 -11.234375 C -73.367188 -14.753906 -78.378906 -19.546875 -81.828125 -25.609375 C -85.273438 -31.671875 -87 -38.515625 -87 -46.140625 C -87 -53.742188 -85.273438 -60.578125 -81.828125 -66.640625 C -78.378906 -72.703125 -73.367188 -77.5 -66.796875 -81.03125 C -60.234375 -84.5625 -52.273438 -86.328125 -42.921875 -86.328125 Z M -42.921875 -67.9375 C -52.023438 -67.9375 -58.972656 -65.953125 -63.765625 -61.984375 C -68.554688 -58.015625 -70.953125 -52.734375 -70.953125 -46.140625 C -70.953125 -39.546875 -68.554688 -34.265625 -63.765625 -30.296875 C -58.972656 -26.328125 -52.023438 -24.34375 -42.921875 -24.34375 C -33.835938 -24.34375 -26.890625 -26.328125 -22.078125 -30.296875 C -17.273438 -34.265625 -14.875 -39.546875 -14.875 -46.140625 C -14.875 -52.734375 -17.273438 -58.015625 -22.078125 -61.984375 C -26.890625 -65.953125 -33.835938 -67.9375 -42.921875 -67.9375 Z M -42.921875 -67.9375 "/>
                        </g>
                    </g>
                </g>
                <g fill="#a6a6a6" fill-opacity="1">
                    <g transform="translate(114.099309, 484.058075)">
                        <g>
                            <path d="M -85.828125 -41.828125 L -85.828125 -59.765625 L -25.984375 -59.765625 C -20.453125 -59.765625 -15.648438 -58.523438 -11.578125 -56.046875 C -7.515625 -53.578125 -4.375 -50.148438 -2.15625 -45.765625 C 0.0625 -41.378906 1.171875 -36.28125 1.171875 -30.46875 C 1.171875 -25.300781 0.25 -20.613281 -1.59375 -16.40625 C -3.4375 -12.195312 -6.226562 -8.863281 -9.96875 -6.40625 C -13.71875 -3.945312 -18.441406 -2.734375 -24.140625 -2.765625 L -24.140625 -20.828125 C -20.734375 -20.878906 -18.085938 -21.863281 -16.203125 -23.78125 C -14.316406 -25.695312 -13.375 -28.234375 -13.375 -31.390625 C -13.375 -38.285156 -17.578125 -41.765625 -25.984375 -41.828125 Z M -85.828125 -41.828125 "/>
                        </g>
                    </g>
                </g>
                <g fill="#a6a6a6" fill-opacity="1">
                    <g transform="translate(114.099309, 396.972661)">
                        <g>
                            <path d="M 0 -7.453125 L -85.828125 -7.453125 L -85.828125 -65.296875 L -70.875 -65.296875 L -70.875 -25.609375 L -50.421875 -25.609375 L -50.421875 -62.3125 L -35.453125 -62.3125 L -35.453125 -25.609375 L -14.96875 -25.609375 L -14.96875 -65.46875 L 0 -65.46875 Z M 0 -7.453125 "/>
                        </g>
                    </g>
                </g>
                <g fill="#a6a6a6" fill-opacity="1">
                    <g transform="translate(114.099309, 304.858484)">
                        <g>
                            <path d="M -55.78125 -83.1875 L -55.78125 -64.828125 C -60.5 -64.128906 -64.207031 -62.117188 -66.90625 -58.796875 C -69.601562 -55.472656 -70.953125 -51.320312 -70.953125 -46.34375 C -70.953125 -39.695312 -68.515625 -34.367188 -63.640625 -30.359375 C -58.765625 -26.347656 -51.859375 -24.34375 -42.921875 -24.34375 C -33.753906 -24.34375 -26.785156 -26.359375 -22.015625 -30.390625 C -17.253906 -34.429688 -14.875 -39.707031 -14.875 -46.21875 C -14.875 -51.050781 -16.140625 -55.144531 -18.671875 -58.5 C -21.203125 -61.851562 -24.757812 -63.960938 -29.34375 -64.828125 L -29.25 -83.1875 C -24 -82.539062 -19.050781 -80.664062 -14.40625 -77.5625 C -9.769531 -74.46875 -6.015625 -70.257812 -3.140625 -64.9375 C -0.265625 -59.613281 1.171875 -53.28125 1.171875 -45.9375 C 1.171875 -38.28125 -0.554688 -31.441406 -4.015625 -25.421875 C -7.484375 -19.398438 -12.5 -14.648438 -19.0625 -11.171875 C -25.632812 -7.691406 -33.585938 -5.953125 -42.921875 -5.953125 C -52.273438 -5.953125 -60.234375 -7.710938 -66.796875 -11.234375 C -73.367188 -14.753906 -78.378906 -19.53125 -81.828125 -25.5625 C -85.273438 -31.59375 -87 -38.382812 -87 -45.9375 C -87 -52.550781 -85.773438 -58.519531 -83.328125 -63.84375 C -80.890625 -69.164062 -77.34375 -73.523438 -72.6875 -76.921875 C -68.039062 -80.316406 -62.40625 -82.40625 -55.78125 -83.1875 Z M -55.78125 -83.1875 "/>
                        </g>
                    </g>
                </g>
                <g fill="#a6a6a6" fill-opacity="1">
                    <g transform="translate(114.099309, 196.275207)">
                        <g>
                            <path d="M -70.875 -4.1875 L -85.828125 -4.1875 L -85.828125 -74.6875 L -70.875 -74.6875 L -70.875 -48.40625 L 0 -48.40625 L 0 -30.46875 L -70.875 -30.46875 Z M -70.875 -4.1875 "/>
                        </g>
                    </g>
                </g>
                <g fill="#a6a6a6" fill-opacity="1">
                    <g transform="translate(114.099309, 97.581821)">
                        <g>
                            <path d="M -61.140625 -54.015625 C -64.523438 -53.679688 -67.148438 -52.234375 -69.015625 -49.671875 C -70.890625 -47.117188 -71.828125 -43.679688 -71.828125 -39.359375 C -71.828125 -34.910156 -70.921875 -31.5 -69.109375 -29.125 C -67.296875 -26.75 -65.003906 -25.5625 -62.234375 -25.5625 C -59.160156 -25.507812 -56.832031 -26.828125 -55.25 -29.515625 C -53.675781 -32.210938 -52.457031 -35.421875 -51.59375 -39.140625 L -49.75 -46.859375 C -48.625 -51.828125 -47 -56.242188 -44.875 -60.109375 C -42.757812 -63.984375 -40.03125 -67.03125 -36.6875 -69.25 C -33.351562 -71.476562 -29.296875 -72.59375 -24.515625 -72.59375 C -16.660156 -72.5625 -10.40625 -69.617188 -5.75 -63.765625 C -1.101562 -57.910156 1.21875 -49.742188 1.21875 -39.265625 C 1.21875 -28.847656 -1.15625 -20.535156 -5.90625 -14.328125 C -10.65625 -8.128906 -17.671875 -4.914062 -26.953125 -4.6875 L -26.953125 -22.25 C -22.648438 -22.5625 -19.414062 -24.257812 -17.25 -27.34375 C -15.082031 -30.425781 -14 -34.332031 -14 -39.0625 C -14 -43.664062 -14.972656 -47.34375 -16.921875 -50.09375 C -18.878906 -52.851562 -21.425781 -54.242188 -24.5625 -54.265625 C -27.46875 -54.242188 -29.703125 -52.972656 -31.265625 -50.453125 C -32.828125 -47.941406 -34.164062 -44.351562 -35.28125 -39.6875 L -37.640625 -30.34375 C -39.367188 -23.101562 -42.117188 -17.390625 -45.890625 -13.203125 C -49.660156 -9.015625 -54.703125 -6.929688 -61.015625 -6.953125 C -66.210938 -6.929688 -70.757812 -8.320312 -74.65625 -11.125 C -78.550781 -13.9375 -81.582031 -17.800781 -83.75 -22.71875 C -85.914062 -27.632812 -87 -33.222656 -87 -39.484375 C -87 -45.847656 -85.910156 -51.410156 -83.734375 -56.171875 C -81.554688 -60.941406 -78.523438 -64.648438 -74.640625 -67.296875 C -70.753906 -69.953125 -66.253906 -71.320312 -61.140625 -71.40625 Z M -61.140625 -54.015625 "/>
                        </g>
                    </g>
                </g>
            </g>
        </g>
    </g>
</svg>